<?xml version="1.0" standalone="no"?>
<!DOCTYPE svg PUBLIC "-//W3C//DTD SVG 20010904//EN"
 "http://www.w3.org/TR/2001/REC-SVG-20010904/DTD/svg10.dtd">
<svg version="1.0" xmlns="http://www.w3.org/2000/svg"
 width="640.000000pt" height="456.000000pt" viewBox="0 0 640.000000 456.000000"
 preserveAspectRatio="xMidYMid meet">

<g transform="translate(0.000000,456.000000) scale(0.100000,-0.100000)"
fill="#000000" stroke="none">
<path d="M1336 3887 c3 -10 9 -15 12 -12 3 3 0 11 -7 18 -10 9 -11 8 -5 -6z"/>
<path d="M5349 3633 c-13 -16 -12 -17 4 -4 16 13 21 21 13 21 -2 0 -10 -8 -17
-17z"/>
<path d="M1080 3626 c0 -2 8 -10 18 -17 15 -13 16 -12 3 4 -13 16 -21 21 -21
13z"/>
<path d="M760 3474 c0 -5 14 -25 30 -44 l30 -35 -25 40 c-31 47 -35 51 -35 39z"/>
<path d="M1347 2960 l-18 -30 135 0 136 0 0 -431 c0 -277 4 -446 11 -473 20
-80 91 -143 186 -165 l38 -9 -35 -1 c-53 -1 -139 47 -175 98 l-30 43 -5 451
-5 452 -140 3 -140 3 -18 -31 -18 -30 140 0 141 0 0 -401 c0 -271 4 -415 12
-446 8 -32 26 -61 58 -95 52 -54 49 -64 -5 -16 -45 39 -72 91 -79 149 -2 24
-5 209 -5 412 l-1 367 -143 0 -143 0 -17 -30 -18 -29 143 -3 143 -3 5 -395 c6
-440 4 -428 77 -489 21 -18 58 -38 83 -46 33 -10 38 -14 20 -14 -14 -1 -53 12
-87 28 -120 57 -133 109 -133 538 0 227 -6 293 -24 247 -3 -8 -11 -12 -16 -9
-6 4 -61 7 -122 7 -93 1 -112 -2 -120 -16 -5 -9 -8 -167 -6 -368 l3 -353 34
-63 c42 -77 84 -115 176 -159 106 -50 194 -66 380 -66 134 -1 174 2 249 21
163 41 264 114 320 232 27 59 31 76 34 188 3 67 1 227 -3 355 l-7 232 -134 0
c-74 0 -135 0 -135 0 -1 0 -4 -142 -8 -315 -5 -280 -8 -319 -25 -350 -36 -69
-53 -80 -120 -80 -122 0 -222 44 -267 117 l-24 38 -5 480 -5 480 -135 3 -135
3 -18 -31z"/>
<path d="M2180 2971 c-20 -38 -13 -40 123 -43 175 -4 172 -22 -5 -26 -111 -2
-135 -5 -145 -19 -30 -39 -19 -43 122 -43 113 0 135 -2 135 -15 0 -13 -23 -15
-144 -15 l-144 0 -10 -30 -11 -29 142 -3 142 -3 4 -340 c3 -322 4 -337 17
-275 8 36 17 86 21 113 3 26 10 50 14 53 5 3 9 160 9 350 l0 344 -130 0 c-118
0 -130 -2 -140 -19z"/>
<path d="M2536 2974 c-18 -46 -40 -44 538 -44 356 0 547 4 551 10 3 6 3 19 0
30 -6 20 -16 20 -545 20 -481 0 -538 -2 -544 -16z"/>
<path d="M3713 2463 c3 -405 8 -552 19 -631 9 -57 19 -106 22 -109 4 -4 6 220
6 497 0 278 -1 511 0 518 0 9 42 12 175 12 180 0 186 1 165 41 -10 18 -23 19
-185 19 -149 0 -175 2 -175 15 0 13 26 15 170 15 175 0 181 1 160 41 -10 18
-23 19 -180 19 -163 0 -170 1 -170 20 0 19 7 20 165 20 91 0 165 3 165 6 0 3
-5 14 -10 25 -10 18 -23 19 -171 19 l-160 0 4 -527z"/>
<path d="M4610 2820 l0 -170 -240 0 -240 0 0 -35 0 -35 255 0 255 0 2 178 3
177 158 3 c86 1 157 5 157 8 0 3 -5 14 -10 25 -10 18 -23 19 -175 19 l-165 0
0 -170z"/>
<path d="M450 2913 c0 -6 8 -17 18 -24 16 -13 16 -13 2 6 -8 11 -16 22 -17 24
-2 2 -3 0 -3 -6z"/>
<path d="M5954 2888 l-19 -23 23 19 c12 11 22 21 22 23 0 8 -8 2 -26 -19z"/>
<path d="M2517 2893 c-4 -3 -7 -17 -7 -30 l0 -23 566 0 565 0 -3 28 -3 27
-556 3 c-305 1 -559 -1 -562 -5z"/>
<path d="M4658 2728 l-3 -173 -265 -5 -265 -5 -3 -33 c-2 -18 -7 -30 -12 -27
-5 3 -80 6 -168 8 l-159 2 -7 -95 c-3 -52 -6 -256 -6 -452 l0 -358 180 0 180
0 0 210 0 210 235 0 235 0 13 -26 12 -27 6 24 c7 22 7 22 9 -6 3 -52 8 -79 22
-110 12 -28 13 -25 18 60 l6 90 2 -118 c2 -91 6 -125 20 -150 17 -32 17 -31
20 116 2 139 4 147 22 147 19 0 20 -8 20 -210 l0 -210 183 2 182 3 -3 395 c-1
217 -5 418 -8 447 l-5 52 -170 3 -169 3 0 -80 c0 -44 -4 -86 -8 -93 -7 -9 -78
-12 -323 -10 l-314 3 -3 33 -3 32 305 0 306 0 2 183 3 182 173 3 c94 1 172 5
172 8 0 2 -7 16 -16 29 -16 25 -16 25 -190 25 l-174 0 0 -180 0 -180 -296 0
c-232 0 -295 3 -292 13 4 9 72 13 286 15 l282 2 0 180 0 180 170 0 c94 0 170
2 170 5 0 3 -7 17 -16 30 -16 25 -17 25 -185 25 l-169 0 -2 -172z"/>
<path d="M2497 2803 c-4 -3 -7 -19 -7 -35 l0 -28 583 2 582 3 0 30 0 30 -576
3 c-316 1 -579 -1 -582 -5z"/>
<path d="M6059 2593 c-13 -16 -12 -17 4 -4 16 13 21 21 13 21 -2 0 -10 -8 -17
-17z"/>
<path d="M392 2574 c10 -10 20 -16 22 -13 3 3 -5 11 -17 18 -21 13 -21 12 -5
-5z"/>
<path d="M2500 2511 c0 -7 -4 -10 -9 -7 -11 7 -21 -17 -21 -50 l0 -24 163 -2
162 -3 3 -417 2 -418 275 0 275 0 0 408 c0 224 0 413 0 420 0 9 39 12 161 12
l162 0 -7 31 c-3 17 -6 34 -6 38 0 3 -255 5 -567 4 -386 -1 -572 2 -580 9 -9
7 -13 7 -13 -1z"/>
<path d="M280 2321 c0 -5 7 -12 16 -15 14 -5 15 -4 4 9 -14 17 -20 19 -20 6z"/>
<path d="M6109 1753 c-13 -16 -12 -17 4 -4 9 7 17 15 17 17 0 8 -8 3 -21 -13z"/>
<path d="M5490 990 c-9 -6 -10 -10 -3 -10 6 0 15 5 18 10 8 12 4 12 -15 0z"/>
</g>
</svg>
